# xmcd CD database file
#
# Track frame offsets:
#	200
#	25207
#	40855
#	56040
#	70247
#	83547
#	102657
#	116477
#	128240
#	142382
#	157457
#	168922
#	183007
#	194982
#	207977
#	219835
#	235115
#	248282
#	262640
#	273270
#
# Disc length: 3823 seconds
#
# Revision: 3
# Processed by: cddbd v1.5.2PL0 Copyright (c) Steve Scherf et al.
# Submitted via: CDex 1.70beta2
#
DISCID=200eed14
DTITLE=Various Artist - Blues Around Midnight
DYEAR=1988
DGENRE=Blues
TTITLE0=Larry Davis - Three O'Clock In The Morning
TTITLE1=Johnny Copeland - Old Man Blues
TTITLE2=Larry Davis - Something About You
TTITLE3=Lowell Fulson - Blues Around Midnight
TTITLE4=T. Bone Walker - Love Will Lead You Right
TTITLE5=B.B. King - You're Breaking My Heart
TTITLE6=B.B. King - Down Now
TTITLE7=Lowell Fulson - Shattered Dreams
TTITLE8=Jimmy Nelson - T-99 (My Sweet Little Honey Dripper
TTITLE9=Ray Charles - I'm Wondering And Wondering
TTITLE10=Jimmy Nelson - Secondhand Fool
TTITLE11=Saunders King - Quit Hangin' Around Me
TTITLE12=Frankie Ervin With Johnny Moore's 3 Blazers - Dragnet Blues
TTITLE13=Mari Jones - Crazy With The Blues
TTITLE14=Lorenzo Holden - Our Love Is Here To Stay
TTITLE15=Jimmy Witherspoon - I Need Somebody
TTITLE16=Jimmy Witherspoon - Gee Baby, Ain't I Good To You
TTITLE17=Vivianne Green - A Picture Of You
TTITLE18=Frankie Ervin With Johnny Moore's 3 Blazers - Playing The Numbers
TTITLE19=Mari Jones - It Just Wasn't True
EXTD=YEAR: 1988
EXTT0=
EXTT1=
EXTT2=
EXTT3=
EXTT4=
EXTT5=
EXTT6=
EXTT7=
EXTT8=
EXTT9=
EXTT10=
EXTT11=
EXTT12=
EXTT13=
EXTT14=
EXTT15=
EXTT16=
EXTT17=
EXTT18=
EXTT19=
PLAYORDER=
